<svg xmlns="http://www.w3.org/2000/svg" viewBox="0 0 1260 1260" role="img" aria-labelledby="title desc">
    <title id="title">kniploket tiko logo</title>
    <desc id="desc">Logo van kniploket tiko met een schaar, scherm en donkerblauwe en gouden tekst.</desc>
    <rect width="1260" height="1260" fill="#fff"/>

    <defs>
        <linearGradient id="gold" x1="0%" x2="100%" y1="0%" y2="0%">
            <stop offset="0%" stop-color="#d6ad5b"/>
            <stop offset="48%" stop-color="#bd8b33"/>
            <stop offset="100%" stop-color="#d6ad5b"/>
        </linearGradient>
        <linearGradient id="navy" x1="0%" x2="100%" y1="0%" y2="100%">
            <stop offset="0%" stop-color="#122844"/>
            <stop offset="100%" stop-color="#071831"/>
        </linearGradient>
    </defs>

    <g fill="none" stroke="url(#navy)" stroke-linecap="round" stroke-linejoin="round">
        <path d="M371 621V331c0-34 14-66 38-90s56-38 90-38h328c34 0 66 14 90 38s38 56 38 90v128" stroke-width="31"/>
        <path d="M323 643h668" stroke-width="26"/>

        <path d="M592 507 526 333" stroke-width="23"/>
        <path d="M663 507 720 333" stroke-width="23"/>
        <path d="M571 611 704 376" stroke-width="28"/>
        <path d="M577 611 623 517" stroke-width="28"/>
        <path d="M641 514 707 611" stroke-width="28"/>

        <circle cx="534" cy="611" r="43" stroke-width="22"/>
        <circle cx="705" cy="611" r="43" stroke-width="22"/>
        <circle cx="622" cy="514" r="15" fill="#fff" stroke="none"/>

        <rect x="814" y="487" width="143" height="87" rx="5" stroke-width="18"/>
        <path d="M886 574v46M856 620h58" stroke-width="17"/>
    </g>

    <g font-family="Arial Black, Arial, Helvetica, sans-serif" font-weight="900">
        <text x="96" y="861" font-size="172" letter-spacing="-2">
            <tspan fill="url(#navy)">knip</tspan><tspan fill="url(#gold)">loket</tspan>
        </text>
    </g>

    <g font-family="Arial, Helvetica, sans-serif" font-weight="600" letter-spacing="42">
        <text x="507" y="1001" font-size="122" fill="url(#navy)">tiko</text>
    </g>

    <path d="M207 958h261" stroke="url(#gold)" stroke-width="6" stroke-linecap="round"/>
    <path d="M856 958h224" stroke="url(#gold)" stroke-width="6" stroke-linecap="round"/>
</svg>
